<svg xmlns="http://www.w3.org/2000/svg" width="1200" height="1200" viewBox="0 0 1200 1200" role="img" aria-label="Delivery Pickup Window Decal applied product mockup">
  <defs>
    <linearGradient id="bg" x1="0" y1="0" x2="1" y2="1"><stop offset="0" stop-color="#eef2ff"/><stop offset="1" stop-color="#d7dde7"/></linearGradient>
    <linearGradient id="accent" x1="0" y1="0" x2="1" y2="1"><stop offset="0" stop-color="#facc15"/><stop offset="1" stop-color="#ffffff"/></linearGradient>
    <linearGradient id="darkGloss" x1="0" y1="0" x2="0" y2="1"><stop offset="0" stop-color="#ffffff" stop-opacity=".26"/><stop offset=".35" stop-color="#ffffff" stop-opacity=".05"/><stop offset="1" stop-color="#000000" stop-opacity=".16"/></linearGradient>
    <filter id="shadow" x="-20%" y="-20%" width="140%" height="140%"><feDropShadow dx="0" dy="22" stdDeviation="22" flood-color="#0f172a" flood-opacity=".24"/></filter>
    <filter id="softShadow" x="-20%" y="-20%" width="140%" height="140%"><feDropShadow dx="0" dy="9" stdDeviation="9" flood-color="#0f172a" flood-opacity=".2"/></filter>
    <filter id="paperNoise"><feTurbulence type="fractalNoise" baseFrequency=".75" numOctaves="3" seed="69" result="noise"/><feColorMatrix type="saturate" values="0"/><feComponentTransfer><feFuncA type="table" tableValues="0 .08"/></feComponentTransfer></filter>
  </defs>
  <rect width="1200" height="1200" fill="#e8edf2"/><rect x="178" y="220" width="844" height="790" rx="14" fill="#1f2937" filter="url(#shadow)"/><rect x="220" y="270" width="365" height="680" fill="#dbeafe" opacity=".82"/><rect x="615" y="270" width="365" height="680" fill="#dbeafe" opacity=".82"/><path d="M220 270l365 680M615 270l365 680" stroke="#fff" stroke-width="10" opacity=".35"/><rect x="238" y="466" width="320" height="150" rx="8" fill="#fff" opacity=".9"/><g transform="translate(252 484)"><g transform="translate(0 0)"><rect width="292" height="112" rx="11.200000000000001" fill="#fff" stroke="#0f172a" stroke-width="7.300000000000001" filter="url(#softShadow)"/><rect x="14.600000000000001" y="5.6000000000000005" width="262.8" height="20.16" rx="5.04" fill="url(#accent)"/><rect x="23.36" y="85.12" width="245.28" height="8.96" rx="3.36" fill="#0f172a" opacity=".12"/><text x="146" y="48.16" text-anchor="middle" font-family="Inter, Arial, sans-serif" font-size="24" font-weight="900" fill="#0f172a">DELIVERY</text><text x="146" y="76" text-anchor="middle" font-family="Inter, Arial, sans-serif" font-size="24" font-weight="900" fill="#0f172a">PICKUP...</text></g></g><rect x="642" y="344" width="310" height="88" rx="6" fill="#fff" opacity=".9"/><text x="797" y="397" text-anchor="middle" font-family="Inter, Arial" font-weight="900" font-size="35" fill="#111827">OPEN</text><circle cx="600" cy="615" r="10" fill="#111827"/>
  <rect width="1200" height="1200" fill="#fff" filter="url(#paperNoise)" opacity=".55"/>
  <text x="72" y="94" font-family="Inter, Arial, sans-serif" font-size="31" font-weight="900" fill="#111827">Applied to storefront</text>
  <text x="72" y="136" font-family="Inter, Arial, sans-serif" font-size="22" font-weight="700" fill="#475569">Delivery Pickup Window Decal</text>
</svg>