<svg xmlns="http://www.w3.org/2000/svg" width="1200" height="1200" viewBox="0 0 1200 1200" role="img" aria-label="Dogs Doing Jobs Sticker Pack applied product mockup">
  <defs>
    <linearGradient id="bg" x1="0" y1="0" x2="1" y2="1"><stop offset="0" stop-color="#fff7ed"/><stop offset="1" stop-color="#d7dde7"/></linearGradient>
    <linearGradient id="accent" x1="0" y1="0" x2="1" y2="1"><stop offset="0" stop-color="#ef4444"/><stop offset="1" stop-color="#facc15"/></linearGradient>
    <linearGradient id="darkGloss" x1="0" y1="0" x2="0" y2="1"><stop offset="0" stop-color="#ffffff" stop-opacity=".26"/><stop offset=".35" stop-color="#ffffff" stop-opacity=".05"/><stop offset="1" stop-color="#000000" stop-opacity=".16"/></linearGradient>
    <filter id="shadow" x="-20%" y="-20%" width="140%" height="140%"><feDropShadow dx="0" dy="22" stdDeviation="22" flood-color="#0f172a" flood-opacity=".24"/></filter>
    <filter id="softShadow" x="-20%" y="-20%" width="140%" height="140%"><feDropShadow dx="0" dy="9" stdDeviation="9" flood-color="#0f172a" flood-opacity=".2"/></filter>
    <filter id="paperNoise"><feTurbulence type="fractalNoise" baseFrequency=".75" numOctaves="3" seed="90" result="noise"/><feColorMatrix type="saturate" values="0"/><feComponentTransfer><feFuncA type="table" tableValues="0 .08"/></feComponentTransfer></filter>
  </defs>
  <rect width="1200" height="1200" fill="#e5edf6"/><rect y="782" width="1200" height="418" fill="#a47752"/><rect x="195" y="590" width="430" height="330" rx="28" fill="#f8fafc" transform="rotate(-6 410 755)" filter="url(#shadow)"/><path d="M780 285h120c48 0 86 38 86 86v450c0 56-45 102-102 102H796c-56 0-102-46-102-102V371c0-48 39-86 86-86Z" fill="#2dd4bf" filter="url(#shadow)"/><path d="M706 390h268" stroke="#ccfbf1" stroke-width="26" opacity=".85"/><g transform="translate(745 538)"><g transform="translate(0 0)"><g fill="#fff" stroke="#e5e7eb" stroke-width="5" filter="url(#softShadow)"><path d="M26.6 33.6C60.800000000000004 4.2 117.8 16.8 155.79999999999998 44.1C186.2 79.8 178.6 138.6 148.20000000000002 172.2C110.19999999999999 207.9 53.2 197.39999999999998 22.8 159.6C-7.6000000000000005 121.8 -3.8000000000000003 63 26.6 33.6Z"/></g><g transform="translate(15.200000000000001 16.8)"><g transform="translate(95 27.3) scale(0.4116666666666667)"><circle cx="60" cy="68" r="34" fill="#facc15" opacity=".95"/><circle cx="28" cy="34" r="17" fill="#ef4444"/><circle cx="52" cy="22" r="17" fill="#ef4444"/><circle cx="78" cy="22" r="17" fill="#ef4444"/><circle cx="96" cy="42" r="17" fill="#ef4444"/><path d="M44 76q16 16 32 0" fill="none" stroke="#ffffff" stroke-width="8" stroke-linecap="round"/></g></g><rect x="38" y="130.2" width="114" height="33.6" rx="16.8" fill="url(#accent)"/><text x="95" y="153.29999999999998" text-anchor="middle" font-family="Inter, Arial, sans-serif" font-size="18" font-weight="900" fill="#fff">DOGS DOING</text><text x="95" y="174.17999999999998" text-anchor="middle" font-family="Inter, Arial, sans-serif" font-size="18" font-weight="900" fill="#fff">JOBS</text></g></g><g transform="translate(245 640)"><g transform="translate(0 0)"><g fill="#fff" stroke="#e5e7eb" stroke-width="6.2" filter="url(#softShadow)"><path d="M43.400000000000006 33.6C99.2 4.2 192.2 16.8 254.2 44.1C303.8 79.8 291.4 138.6 241.8 172.2C179.79999999999998 207.9 86.80000000000001 197.39999999999998 37.199999999999996 159.6C-12.4 121.8 -6.2 63 43.400000000000006 33.6Z"/></g><g transform="translate(24.8 16.8)"><g transform="translate(155 27.3) scale(0.6716666666666667)"><circle cx="60" cy="68" r="34" fill="#facc15" opacity=".95"/><circle cx="28" cy="34" r="17" fill="#ef4444"/><circle cx="52" cy="22" r="17" fill="#ef4444"/><circle cx="78" cy="22" r="17" fill="#ef4444"/><circle cx="96" cy="42" r="17" fill="#ef4444"/><path d="M44 76q16 16 32 0" fill="none" stroke="#ffffff" stroke-width="8" stroke-linecap="round"/></g></g><rect x="62" y="130.2" width="186" height="33.6" rx="16.8" fill="url(#accent)"/><text x="155" y="153.29999999999998" text-anchor="middle" font-family="Inter, Arial, sans-serif" font-size="18" font-weight="900" fill="#fff">DOGS DOING</text><text x="155" y="174.17999999999998" text-anchor="middle" font-family="Inter, Arial, sans-serif" font-size="18" font-weight="900" fill="#fff">JOBS</text></g></g>
  <rect width="1200" height="1200" fill="#fff" filter="url(#paperNoise)" opacity=".55"/>
  <text x="72" y="94" font-family="Inter, Arial, sans-serif" font-size="31" font-weight="900" fill="#111827">Applied to everyday gear</text>
  <text x="72" y="136" font-family="Inter, Arial, sans-serif" font-size="22" font-weight="700" fill="#475569">Dogs Doing Jobs Sticker Pack</text>
</svg>