<svg xmlns="http://www.w3.org/2000/svg" width="1200" height="1200" viewBox="0 0 1200 1200" role="img" aria-label="Business Card + Brochure Set applied product mockup">
  <defs>
    <linearGradient id="bg" x1="0" y1="0" x2="1" y2="1"><stop offset="0" stop-color="#f1f5f9"/><stop offset="1" stop-color="#d7dde7"/></linearGradient>
    <linearGradient id="accent" x1="0" y1="0" x2="1" y2="1"><stop offset="0" stop-color="#ffd21d"/><stop offset="1" stop-color="#ef1d24"/></linearGradient>
    <linearGradient id="darkGloss" x1="0" y1="0" x2="0" y2="1"><stop offset="0" stop-color="#ffffff" stop-opacity=".26"/><stop offset=".35" stop-color="#ffffff" stop-opacity=".05"/><stop offset="1" stop-color="#000000" stop-opacity=".16"/></linearGradient>
    <filter id="shadow" x="-20%" y="-20%" width="140%" height="140%"><feDropShadow dx="0" dy="22" stdDeviation="22" flood-color="#0f172a" flood-opacity=".24"/></filter>
    <filter id="softShadow" x="-20%" y="-20%" width="140%" height="140%"><feDropShadow dx="0" dy="9" stdDeviation="9" flood-color="#0f172a" flood-opacity=".2"/></filter>
    <filter id="paperNoise"><feTurbulence type="fractalNoise" baseFrequency=".75" numOctaves="3" seed="91" result="noise"/><feColorMatrix type="saturate" values="0"/><feComponentTransfer><feFuncA type="table" tableValues="0 .08"/></feComponentTransfer></filter>
  </defs>
  <rect width="1200" height="1200" fill="#e5e7eb"/><rect y="775" width="1200" height="425" fill="#b08968"/><rect x="180" y="235" width="840" height="610" rx="34" fill="#111827" filter="url(#shadow)"/><rect x="225" y="290" width="750" height="500" rx="20" fill="#f8fafc"/><g transform="translate(318 385)"><g transform="translate(0 0)"><g fill="#fff" stroke="#e5e7eb" stroke-width="11.28" filter="url(#softShadow)"><path d="M78.96000000000001 50.24C180.48 6.28 349.68 25.12 462.47999999999996 65.94C552.72 119.32000000000001 530.16 207.24 439.92 257.47999999999996C327.12 310.86 157.92000000000002 295.15999999999997 67.67999999999999 238.64000000000001C-22.56 182.11999999999998 -11.28 94.2 78.96000000000001 50.24Z"/></g><g transform="translate(45.12 25.12)"><polygon points="355.32,40.82000000000001 376.86820734904205,84.48143698621443 425.0514637747607,91.48287397242888 390.1857318873803,125.46856301378558 398.4164146980841,173.45712602757118 355.32,150.8 312.2235853019159,173.45712602757118 320.4542681126197,125.4685630137856 285.5885362252393,91.48287397242885 333.77179265095793,84.48143698621445" fill="#ffd21d" filter="url(#softShadow)"/></g><rect x="112.80000000000001" y="194.68" width="338.4" height="50.24" rx="25.12" fill="url(#accent)"/><text x="282" y="229.22" text-anchor="middle" font-family="Inter, Arial, sans-serif" font-size="18" font-weight="900" fill="#fff">BUSINESS</text><text x="282" y="250.1" text-anchor="middle" font-family="Inter, Arial, sans-serif" font-size="18" font-weight="900" fill="#fff">CARD +...</text></g></g>
  <rect width="1200" height="1200" fill="#fff" filter="url(#paperNoise)" opacity=".55"/>
  <text x="72" y="94" font-family="Inter, Arial, sans-serif" font-size="31" font-weight="900" fill="#111827">Project mockup</text>
  <text x="72" y="136" font-family="Inter, Arial, sans-serif" font-size="22" font-weight="700" fill="#475569">Business Card + Brochure Set</text>
</svg>