<svg xmlns="http://www.w3.org/2000/svg" width="1200" height="1200" viewBox="0 0 1200 1200" role="img" aria-label="Garage Blueprint Poster applied product mockup">
  <defs>
    <linearGradient id="bg" x1="0" y1="0" x2="1" y2="1"><stop offset="0" stop-color="#f1f5f9"/><stop offset="1" stop-color="#d7dde7"/></linearGradient>
    <linearGradient id="accent" x1="0" y1="0" x2="1" y2="1"><stop offset="0" stop-color="#0f172a"/><stop offset="1" stop-color="#fb7185"/></linearGradient>
    <linearGradient id="darkGloss" x1="0" y1="0" x2="0" y2="1"><stop offset="0" stop-color="#ffffff" stop-opacity=".26"/><stop offset=".35" stop-color="#ffffff" stop-opacity=".05"/><stop offset="1" stop-color="#000000" stop-opacity=".16"/></linearGradient>
    <filter id="shadow" x="-20%" y="-20%" width="140%" height="140%"><feDropShadow dx="0" dy="22" stdDeviation="22" flood-color="#0f172a" flood-opacity=".24"/></filter>
    <filter id="softShadow" x="-20%" y="-20%" width="140%" height="140%"><feDropShadow dx="0" dy="9" stdDeviation="9" flood-color="#0f172a" flood-opacity=".2"/></filter>
    <filter id="paperNoise"><feTurbulence type="fractalNoise" baseFrequency=".75" numOctaves="3" seed="56" result="noise"/><feColorMatrix type="saturate" values="0"/><feComponentTransfer><feFuncA type="table" tableValues="0 .08"/></feComponentTransfer></filter>
  </defs>
  <rect width="1200" height="1200" fill="#e9dfd2"/><rect y="820" width="1200" height="380" fill="#b98b64"/><rect x="315" y="190" width="570" height="690" rx="18" fill="#654321" filter="url(#shadow)"/><rect x="350" y="225" width="500" height="620" rx="8" fill="#fff"/><g transform="translate(382 264)"><g transform="translate(0 0)"><rect width="436" height="520" rx="19.62" fill="#fff" filter="url(#softShadow)"/><rect x="21.8" y="26" width="392.40000000000003" height="468" rx="13.952" fill="#f1f5f9"/><circle cx="331.36" cy="114.4" r="52.32" fill="#fb7185" opacity=".78"/><path d="M34.88 390C113.36 218.4 183.12 457.6 252.88 260S361.88 280.8 405.48 145.60000000000002" fill="none" stroke="#0f172a" stroke-width="19.62" stroke-linecap="round"/><rect x="52.32" y="62.4" width="87.2" height="15.6" fill="#f8fafc" opacity=".55"/><text x="218" y="301.59999999999997" text-anchor="middle" font-family="Inter, Arial, sans-serif" font-size="22" font-weight="900" fill="#f8fafc">GARAGE</text><text x="218" y="327.11999999999995" text-anchor="middle" font-family="Inter, Arial, sans-serif" font-size="22" font-weight="900" fill="#f8fafc">BLUEPRINT</text></g></g><rect x="170" y="835" width="860" height="70" rx="35" fill="#f8fafc" filter="url(#softShadow)"/><rect x="225" y="870" width="750" height="180" rx="38" fill="#334155"/>
  <rect width="1200" height="1200" fill="#fff" filter="url(#paperNoise)" opacity=".55"/>
  <text x="72" y="94" font-family="Inter, Arial, sans-serif" font-size="31" font-weight="900" fill="#111827">Framed wall print</text>
  <text x="72" y="136" font-family="Inter, Arial, sans-serif" font-size="22" font-weight="700" fill="#475569">Garage Blueprint Poster</text>
</svg>