<svg xmlns="http://www.w3.org/2000/svg" width="1200" height="1200" viewBox="0 0 1200 1200" role="img" aria-label="Glitch Neon Rear Quarter Kit applied product mockup">
  <defs>
    <linearGradient id="bg" x1="0" y1="0" x2="1" y2="1"><stop offset="0" stop-color="#f1f5f9"/><stop offset="1" stop-color="#d7dde7"/></linearGradient>
    <linearGradient id="accent" x1="0" y1="0" x2="1" y2="1"><stop offset="0" stop-color="#22d3ee"/><stop offset="1" stop-color="#a855f7"/></linearGradient>
    <linearGradient id="darkGloss" x1="0" y1="0" x2="0" y2="1"><stop offset="0" stop-color="#ffffff" stop-opacity=".26"/><stop offset=".35" stop-color="#ffffff" stop-opacity=".05"/><stop offset="1" stop-color="#000000" stop-opacity=".16"/></linearGradient>
    <filter id="shadow" x="-20%" y="-20%" width="140%" height="140%"><feDropShadow dx="0" dy="22" stdDeviation="22" flood-color="#0f172a" flood-opacity=".24"/></filter>
    <filter id="softShadow" x="-20%" y="-20%" width="140%" height="140%"><feDropShadow dx="0" dy="9" stdDeviation="9" flood-color="#0f172a" flood-opacity=".2"/></filter>
    <filter id="paperNoise"><feTurbulence type="fractalNoise" baseFrequency=".75" numOctaves="3" seed="94" result="noise"/><feColorMatrix type="saturate" values="0"/><feComponentTransfer><feFuncA type="table" tableValues="0 .08"/></feComponentTransfer></filter>
  </defs>
  <rect width="1200" height="1200" fill="#d8e2ee"/><rect y="760" width="1200" height="440" fill="#4b5563"/><path d="M140 735C210 545 330 455 538 425l280-40c80-12 150 15 205 76l70 78c48 54 38 149-24 188-72 45-184 66-340 62l-358-8c-104-2-181-18-231-46Z" fill="#111827" filter="url(#shadow)"/><path d="M360 485h454c62 0 112 44 126 104l16 69H245l36-88c22-52 36-85 79-85Z" fill="#334155"/><path d="M411 505h180v138H318l31-78c15-38 29-60 62-60ZM626 505h174c48 0 82 36 96 88l12 50H626Z" fill="#c7d2fe" opacity=".78"/><circle cx="320" cy="787" r="82" fill="#111827"/><circle cx="320" cy="787" r="38" fill="#94a3b8"/><circle cx="910" cy="787" r="82" fill="#111827"/><circle cx="910" cy="787" r="38" fill="#94a3b8"/><g transform="translate(500 610)"><g transform="translate(0 0)"><path d="M6 86.4C54 28.799999999999997 156 16 294 44.800000000000004C240 80 204.00000000000003 118.4 54 134.4C30 121.6 18 105.60000000000001 6 86.4Z" fill="url(#accent)" filter="url(#softShadow)"/><path d="M42.00000000000001 83.2C114 67.2 180 60.8 258 67.2" fill="none" stroke="#fff" stroke-width="10.500000000000002" stroke-linecap="round" opacity=".84"/><g transform="translate(204.00000000000003 76.8)"><rect width="54" height="54" rx="9.719999999999999" fill="#020617" stroke="#22d3ee" stroke-width="2.4299999999999997"/><path d="M9.719999999999999 18.9H44.279999999999994M9.719999999999999 29.700000000000003H36.720000000000006M9.719999999999999 40.5H29.700000000000003" stroke="#22d3ee" stroke-width="2.97" stroke-linecap="round"/><circle cx="42.120000000000005" cy="38.879999999999995" r="4.859999999999999" fill="#a855f7"/></g><text x="111" y="97.6" text-anchor="middle" font-family="Inter, Arial, sans-serif" font-size="20" font-weight="900" fill="#fff">GLITCH NEON</text><text x="111" y="120.8" text-anchor="middle" font-family="Inter, Arial, sans-serif" font-size="20" font-weight="900" fill="#fff">REAR QUARTER</text></g></g><path d="M185 704c185 35 575 35 870 0" stroke="#fff" stroke-width="9" opacity=".22"/>
  <rect width="1200" height="1200" fill="#fff" filter="url(#paperNoise)" opacity=".55"/>
  <text x="72" y="94" font-family="Inter, Arial, sans-serif" font-size="31" font-weight="900" fill="#111827">Applied to vehicle</text>
  <text x="72" y="136" font-family="Inter, Arial, sans-serif" font-size="22" font-weight="700" fill="#475569">Glitch Neon Rear Quarter Kit</text>
</svg>