<svg xmlns="http://www.w3.org/2000/svg" width="1200" height="1200" viewBox="0 0 1200 1200" role="img" aria-label="Graduation Photo Yard Sign with H-Stake applied product mockup">
  <defs>
    <linearGradient id="bg" x1="0" y1="0" x2="1" y2="1"><stop offset="0" stop-color="#f8fafc"/><stop offset="1" stop-color="#d7dde7"/></linearGradient>
    <linearGradient id="accent" x1="0" y1="0" x2="1" y2="1"><stop offset="0" stop-color="#111827"/><stop offset="1" stop-color="#facc15"/></linearGradient>
    <linearGradient id="darkGloss" x1="0" y1="0" x2="0" y2="1"><stop offset="0" stop-color="#ffffff" stop-opacity=".26"/><stop offset=".35" stop-color="#ffffff" stop-opacity=".05"/><stop offset="1" stop-color="#000000" stop-opacity=".16"/></linearGradient>
    <filter id="shadow" x="-20%" y="-20%" width="140%" height="140%"><feDropShadow dx="0" dy="22" stdDeviation="22" flood-color="#0f172a" flood-opacity=".24"/></filter>
    <filter id="softShadow" x="-20%" y="-20%" width="140%" height="140%"><feDropShadow dx="0" dy="9" stdDeviation="9" flood-color="#0f172a" flood-opacity=".2"/></filter>
    <filter id="paperNoise"><feTurbulence type="fractalNoise" baseFrequency=".75" numOctaves="3" seed="19" result="noise"/><feColorMatrix type="saturate" values="0"/><feComponentTransfer><feFuncA type="table" tableValues="0 .08"/></feComponentTransfer></filter>
  </defs>
  <rect width="1200" height="1200" fill="#cfe8ff"/><path d="M0 760C220 690 382 748 610 712s378-96 590-32v520H0Z" fill="#7eb46a"/><path d="M575 780v285M695 780v285" stroke="#475569" stroke-width="12"/><g transform="translate(350 398)"><g transform="translate(0 0)"><rect width="570" height="350" rx="35" fill="#fff" stroke="#ffffff" stroke-width="14.25" filter="url(#softShadow)"/><rect x="28.5" y="17.5" width="513" height="63" rx="15.75" fill="url(#accent)"/><rect x="45.6" y="266" width="478.79999999999995" height="28" rx="10.5" fill="#ffffff" opacity=".12"/><text x="285" y="150.5" text-anchor="middle" font-family="Inter, Arial, sans-serif" font-size="24" font-weight="900" fill="#ffffff">CLASS OF</text><text x="285" y="178.34" text-anchor="middle" font-family="Inter, Arial, sans-serif" font-size="24" font-weight="900" fill="#ffffff">2026</text></g></g><ellipse cx="635" cy="1070" rx="260" ry="32" fill="#000" opacity=".16"/>
  <rect width="1200" height="1200" fill="#fff" filter="url(#paperNoise)" opacity=".55"/>
  <text x="72" y="94" font-family="Inter, Arial, sans-serif" font-size="31" font-weight="900" fill="#111827">Installed outdoors</text>
  <text x="72" y="136" font-family="Inter, Arial, sans-serif" font-size="22" font-weight="700" fill="#475569">Graduation Photo Yard Sign with H-Stake</text>
</svg>