<svg xmlns="http://www.w3.org/2000/svg" width="1200" height="1200" viewBox="0 0 1200 1200" role="img" aria-label="Fluorescent Pink Accent Vinyl Sheet applied product mockup">
  <defs>
    <linearGradient id="bg" x1="0" y1="0" x2="1" y2="1"><stop offset="0" stop-color="#fff7ed"/><stop offset="1" stop-color="#d7dde7"/></linearGradient>
    <linearGradient id="accent" x1="0" y1="0" x2="1" y2="1"><stop offset="0" stop-color="#60a5fa"/><stop offset="1" stop-color="#34d399"/></linearGradient>
    <linearGradient id="darkGloss" x1="0" y1="0" x2="0" y2="1"><stop offset="0" stop-color="#ffffff" stop-opacity=".26"/><stop offset=".35" stop-color="#ffffff" stop-opacity=".05"/><stop offset="1" stop-color="#000000" stop-opacity=".16"/></linearGradient>
    <filter id="shadow" x="-20%" y="-20%" width="140%" height="140%"><feDropShadow dx="0" dy="22" stdDeviation="22" flood-color="#0f172a" flood-opacity=".24"/></filter>
    <filter id="softShadow" x="-20%" y="-20%" width="140%" height="140%"><feDropShadow dx="0" dy="9" stdDeviation="9" flood-color="#0f172a" flood-opacity=".2"/></filter>
    <filter id="paperNoise"><feTurbulence type="fractalNoise" baseFrequency=".75" numOctaves="3" seed="72" result="noise"/><feColorMatrix type="saturate" values="0"/><feComponentTransfer><feFuncA type="table" tableValues="0 .08"/></feComponentTransfer></filter>
  </defs>
  <rect width="1200" height="1200" fill="#d8e2ee"/><rect y="760" width="1200" height="440" fill="#4b5563"/><path d="M140 735C210 545 330 455 538 425l280-40c80-12 150 15 205 76l70 78c48 54 38 149-24 188-72 45-184 66-340 62l-358-8c-104-2-181-18-231-46Z" fill="#111827" filter="url(#shadow)"/><path d="M360 485h454c62 0 112 44 126 104l16 69H245l36-88c22-52 36-85 79-85Z" fill="#334155"/><path d="M411 505h180v138H318l31-78c15-38 29-60 62-60ZM626 505h174c48 0 82 36 96 88l12 50H626Z" fill="#c7d2fe" opacity=".78"/><circle cx="320" cy="787" r="82" fill="#111827"/><circle cx="320" cy="787" r="38" fill="#94a3b8"/><circle cx="910" cy="787" r="82" fill="#111827"/><circle cx="910" cy="787" r="38" fill="#94a3b8"/><g transform="translate(500 610)"><g transform="translate(0 0)"><rect width="300" height="160" rx="16" fill="#111827" filter="url(#softShadow)"/><rect width="300" height="160" rx="16" fill="url(#accent)" opacity=".86"/><path d="M0 32 C75 6.4 174 57.599999999999994 300 19.2V160H0Z" fill="#fff" opacity=".18"/><g opacity=".26"><path d="M-60 0L0 160" stroke="#fff" stroke-width="7.5"/><path d="M0 0L60 160" stroke="#fff" stroke-width="7.5"/><path d="M60 0L120 160" stroke="#fff" stroke-width="7.5"/><path d="M120 0L180 160" stroke="#fff" stroke-width="7.5"/><path d="M180 0L240 160" stroke="#fff" stroke-width="7.5"/><path d="M240 0L300 160" stroke="#fff" stroke-width="7.5"/><path d="M300 0L360 160" stroke="#fff" stroke-width="7.5"/><path d="M360 0L420 160" stroke="#fff" stroke-width="7.5"/></g><text x="150" y="115.19999999999999" text-anchor="middle" font-family="Inter, Arial, sans-serif" font-size="24" font-weight="900" fill="#fff">Fluorescent Pink</text><text x="150" y="143.04" text-anchor="middle" font-family="Inter, Arial, sans-serif" font-size="24" font-weight="900" fill="#fff">Accent Vinyl Sheet</text></g></g><path d="M185 704c185 35 575 35 870 0" stroke="#fff" stroke-width="9" opacity=".22"/>
  <rect width="1200" height="1200" fill="#fff" filter="url(#paperNoise)" opacity=".55"/>
  <text x="72" y="94" font-family="Inter, Arial, sans-serif" font-size="31" font-weight="900" fill="#111827">Material on vehicle panel</text>
  <text x="72" y="136" font-family="Inter, Arial, sans-serif" font-size="22" font-weight="700" fill="#475569">Fluorescent Pink Accent Vinyl Sheet</text>
</svg>