<svg xmlns="http://www.w3.org/2000/svg" width="1200" height="1200" viewBox="0 0 1200 1200" role="img" aria-label="Cyber Grid Laptop Skin Decal applied product mockup">
  <defs>
    <linearGradient id="bg" x1="0" y1="0" x2="1" y2="1"><stop offset="0" stop-color="#f1f5f9"/><stop offset="1" stop-color="#d7dde7"/></linearGradient>
    <linearGradient id="accent" x1="0" y1="0" x2="1" y2="1"><stop offset="0" stop-color="#22d3ee"/><stop offset="1" stop-color="#a855f7"/></linearGradient>
    <linearGradient id="darkGloss" x1="0" y1="0" x2="0" y2="1"><stop offset="0" stop-color="#ffffff" stop-opacity=".26"/><stop offset=".35" stop-color="#ffffff" stop-opacity=".05"/><stop offset="1" stop-color="#000000" stop-opacity=".16"/></linearGradient>
    <filter id="shadow" x="-20%" y="-20%" width="140%" height="140%"><feDropShadow dx="0" dy="22" stdDeviation="22" flood-color="#0f172a" flood-opacity=".24"/></filter>
    <filter id="softShadow" x="-20%" y="-20%" width="140%" height="140%"><feDropShadow dx="0" dy="9" stdDeviation="9" flood-color="#0f172a" flood-opacity=".2"/></filter>
    <filter id="paperNoise"><feTurbulence type="fractalNoise" baseFrequency=".75" numOctaves="3" seed="18" result="noise"/><feColorMatrix type="saturate" values="0"/><feComponentTransfer><feFuncA type="table" tableValues="0 .08"/></feComponentTransfer></filter>
  </defs>
  <rect width="1200" height="1200" fill="#dbe4ea"/><rect y="795" width="1200" height="405" fill="#8a6a53"/><rect x="160" y="376" width="760" height="472" rx="34" fill="#202733" filter="url(#shadow)"/><rect x="198" y="418" width="684" height="386" rx="20" fill="#364152"/><rect x="115" y="840" width="895" height="64" rx="22" fill="#171d26"/><rect x="220" y="884" width="690" height="30" rx="15" fill="#0f141c"/><g transform="translate(412 520)"><g transform="translate(0 0)"><g fill="#fff" stroke="#e5e7eb" stroke-width="5.6000000000000005" filter="url(#softShadow)"><path d="M39.2 33.6C89.60000000000001 4.2 173.6 16.8 229.6 44.1C274.4 79.8 263.2 138.6 218.4 172.2C162.39999999999998 207.9 78.4 197.39999999999998 33.6 159.6C-11.200000000000001 121.8 -5.6000000000000005 63 39.2 33.6Z"/></g><g transform="translate(22.400000000000002 16.8)"><g transform="translate(140 27.3)"><rect width="72.8" height="72.8" rx="13.104" fill="#020617" stroke="#22d3ee" stroke-width="3.276"/><path d="M13.104 25.479999999999997H59.69599999999999M13.104 40.04H49.504000000000005M13.104 54.599999999999994H40.04" stroke="#22d3ee" stroke-width="4.004" stroke-linecap="round"/><circle cx="56.784" cy="52.416" r="6.552" fill="#a855f7"/></g></g><rect x="56" y="130.2" width="168" height="33.6" rx="16.8" fill="url(#accent)"/><text x="140" y="153.29999999999998" text-anchor="middle" font-family="Inter, Arial, sans-serif" font-size="18" font-weight="900" fill="#fff">CYBER GRID</text><text x="140" y="174.17999999999998" text-anchor="middle" font-family="Inter, Arial, sans-serif" font-size="18" font-weight="900" fill="#fff">LAPTOP SKIN</text></g></g><rect x="930" y="700" width="110" height="170" rx="22" fill="#111827" filter="url(#softShadow)"/><circle cx="985" cy="832" r="11" fill="#64748b"/>
  <rect width="1200" height="1200" fill="#fff" filter="url(#paperNoise)" opacity=".55"/>
  <text x="72" y="94" font-family="Inter, Arial, sans-serif" font-size="31" font-weight="900" fill="#111827">Applied to laptop</text>
  <text x="72" y="136" font-family="Inter, Arial, sans-serif" font-size="22" font-weight="700" fill="#475569">Cyber Grid Laptop Skin Decal</text>
</svg>