<svg xmlns="http://www.w3.org/2000/svg" width="1200" height="1200" viewBox="0 0 1200 1200" role="img" aria-label="Garage Shop Wall Sign applied product mockup">
  <defs>
    <linearGradient id="bg" x1="0" y1="0" x2="1" y2="1"><stop offset="0" stop-color="#fff7ed"/><stop offset="1" stop-color="#d7dde7"/></linearGradient>
    <linearGradient id="accent" x1="0" y1="0" x2="1" y2="1"><stop offset="0" stop-color="#334155"/><stop offset="1" stop-color="#84cc16"/></linearGradient>
    <linearGradient id="darkGloss" x1="0" y1="0" x2="0" y2="1"><stop offset="0" stop-color="#ffffff" stop-opacity=".26"/><stop offset=".35" stop-color="#ffffff" stop-opacity=".05"/><stop offset="1" stop-color="#000000" stop-opacity=".16"/></linearGradient>
    <filter id="shadow" x="-20%" y="-20%" width="140%" height="140%"><feDropShadow dx="0" dy="22" stdDeviation="22" flood-color="#0f172a" flood-opacity=".24"/></filter>
    <filter id="softShadow" x="-20%" y="-20%" width="140%" height="140%"><feDropShadow dx="0" dy="9" stdDeviation="9" flood-color="#0f172a" flood-opacity=".2"/></filter>
    <filter id="paperNoise"><feTurbulence type="fractalNoise" baseFrequency=".75" numOctaves="3" seed="43" result="noise"/><feColorMatrix type="saturate" values="0"/><feComponentTransfer><feFuncA type="table" tableValues="0 .08"/></feComponentTransfer></filter>
  </defs>
  <rect width="1200" height="1200" fill="#efe7dc"/><rect y="830" width="1200" height="370" fill="#caa98b"/><rect x="205" y="315" width="790" height="330" rx="24" fill="#fdf8ef" filter="url(#shadow)"/><g transform="translate(282 370)"><g transform="translate(0 0)"><rect width="636" height="220" rx="9.9" fill="#fff" filter="url(#softShadow)"/><rect x="31.8" y="11" width="572.4" height="198" rx="7.04" fill="#fff7ed"/><circle cx="483.36" cy="48.4" r="76.32" fill="#84cc16" opacity=".78"/><path d="M50.88 165C165.36 92.39999999999999 267.12 193.6 368.88 110S527.88 118.80000000000001 591.48 61.60000000000001" fill="none" stroke="#334155" stroke-width="28.619999999999997" stroke-linecap="round"/><rect x="76.32" y="26.4" width="127.2" height="6.6" fill="#fff7ed" opacity=".55"/><text x="318" y="127.6" text-anchor="middle" font-family="Inter, Arial, sans-serif" font-size="22" font-weight="900" fill="#fff7ed">GARAGE SHOP</text><text x="318" y="153.12" text-anchor="middle" font-family="Inter, Arial, sans-serif" font-size="22" font-weight="900" fill="#fff7ed">WALL</text></g></g><rect x="140" y="842" width="340" height="170" rx="20" fill="#fff" filter="url(#softShadow)"/><rect x="720" y="805" width="250" height="260" rx="20" fill="#475569"/><circle cx="845" cy="880" r="48" fill="#84cc16" opacity=".8"/>
  <rect width="1200" height="1200" fill="#fff" filter="url(#paperNoise)" opacity=".55"/>
  <text x="72" y="94" font-family="Inter, Arial, sans-serif" font-size="31" font-weight="900" fill="#111827">Installed decor</text>
  <text x="72" y="136" font-family="Inter, Arial, sans-serif" font-size="22" font-weight="700" fill="#475569">Garage Shop Wall Sign</text>
</svg>