<svg xmlns="http://www.w3.org/2000/svg" width="1200" height="1200" viewBox="0 0 1200 1200" role="img" aria-label="Tea Time Floral Mug Decal applied product mockup">
  <defs>
    <linearGradient id="bg" x1="0" y1="0" x2="1" y2="1"><stop offset="0" stop-color="#eef2ff"/><stop offset="1" stop-color="#d7dde7"/></linearGradient>
    <linearGradient id="accent" x1="0" y1="0" x2="1" y2="1"><stop offset="0" stop-color="#db2777"/><stop offset="1" stop-color="#84cc16"/></linearGradient>
    <linearGradient id="darkGloss" x1="0" y1="0" x2="0" y2="1"><stop offset="0" stop-color="#ffffff" stop-opacity=".26"/><stop offset=".35" stop-color="#ffffff" stop-opacity=".05"/><stop offset="1" stop-color="#000000" stop-opacity=".16"/></linearGradient>
    <filter id="shadow" x="-20%" y="-20%" width="140%" height="140%"><feDropShadow dx="0" dy="22" stdDeviation="22" flood-color="#0f172a" flood-opacity=".24"/></filter>
    <filter id="softShadow" x="-20%" y="-20%" width="140%" height="140%"><feDropShadow dx="0" dy="9" stdDeviation="9" flood-color="#0f172a" flood-opacity=".2"/></filter>
    <filter id="paperNoise"><feTurbulence type="fractalNoise" baseFrequency=".75" numOctaves="3" seed="38" result="noise"/><feColorMatrix type="saturate" values="0"/><feComponentTransfer><feFuncA type="table" tableValues="0 .08"/></feComponentTransfer></filter>
  </defs>
  <rect width="1200" height="1200" fill="url(#bg)"/><rect y="760" width="1200" height="440" fill="#b98558"/><path d="M180 805h840" stroke="#8b5e3c" stroke-width="6" opacity=".25"/><rect x="112" y="330" width="380" height="250" rx="24" fill="#1f2937" opacity=".18" transform="rotate(-8 302 455)"/><ellipse cx="690" cy="842" rx="244" ry="50" fill="#111827" opacity=".18"/><path d="M468 380h330c56 0 98 48 91 104l-45 330c-7 50-50 88-101 88H526c-51 0-94-38-101-88l-45-330c-7-56 35-104 88-104Z" fill="#fff" filter="url(#shadow)"/><path d="M820 486c116 6 166 74 150 150-14 69-78 115-162 114" fill="none" stroke="#fff" stroke-width="52" stroke-linecap="round" filter="url(#softShadow)"/><path d="M451 424h390" stroke="#f8fafc" stroke-width="22" opacity=".9"/><g transform="translate(498 538)"><g transform="translate(0 0)"><g fill="#fff" stroke="#e5e7eb" stroke-width="5.7" filter="url(#softShadow)"><path d="M39.900000000000006 33.6C91.2 4.2 176.7 16.8 233.7 44.1C279.3 79.8 267.9 138.6 222.3 172.2C165.29999999999998 207.9 79.80000000000001 197.39999999999998 34.199999999999996 159.6C-11.4 121.8 -5.7 63 39.900000000000006 33.6Z"/></g><g transform="translate(22.8 16.8)"><g transform="translate(142.5 27.3) scale(0.5700000000000001)"><circle cx="65" cy="65" r="16" fill="#84cc16"/><g fill="#db2777"><ellipse cx="65" cy="25" rx="18" ry="28"/><ellipse cx="65" cy="105" rx="18" ry="28"/><ellipse cx="25" cy="65" rx="28" ry="18"/><ellipse cx="105" cy="65" rx="28" ry="18"/><ellipse cx="36" cy="36" rx="16" ry="25" transform="rotate(-45 36 36)"/><ellipse cx="94" cy="36" rx="16" ry="25" transform="rotate(45 94 36)"/></g><path d="M66 113c18 14 35 21 51 20" fill="none" stroke="#84cc16" stroke-width="8" stroke-linecap="round"/></g></g><rect x="57" y="130.2" width="171" height="33.6" rx="16.8" fill="url(#accent)"/><text x="142.5" y="153.29999999999998" text-anchor="middle" font-family="Inter, Arial, sans-serif" font-size="18" font-weight="900" fill="#fff">TEA TIME</text><text x="142.5" y="174.17999999999998" text-anchor="middle" font-family="Inter, Arial, sans-serif" font-size="18" font-weight="900" fill="#fff">FLORAL MUG</text></g></g>
  <rect width="1200" height="1200" fill="#fff" filter="url(#paperNoise)" opacity=".55"/>
  <text x="72" y="94" font-family="Inter, Arial, sans-serif" font-size="31" font-weight="900" fill="#111827">Applied to mug</text>
  <text x="72" y="136" font-family="Inter, Arial, sans-serif" font-size="22" font-weight="700" fill="#475569">Tea Time Floral Mug Decal</text>
</svg>